<svg xmlns="http://www.w3.org/2000/svg" enable-background="new 0 0 64 64" viewBox="0 0 64 64"><path d="M60,11H4c-0.5,0-1,0.5-1,1v40c0,0.5,0.5,1,1,1h56c0.5,0,1-0.5,1-1V12C61,11.5,60.5,11,60,11z M22,13h10c0.5,0,1,0.5,1,1s-0.5,1-1,1H22c-0.5,0-1-0.5-1-1S21.5,13,22,13z M16,13h2c0.5,0,1,0.5,1,1s-0.5,1-1,1h-2c-0.5,0-1-0.5-1-1S15.5,13,16,13z M9.3,51H6.9C5.9,51,5,50.1,5,49.1v-2.3c0-0.5,0.5-1,1-1s1,0.5,1,1L7,49h2.3c0.5,0,1,0.5,1,1S9.8,51,9.3,51z M31.4,34.8l-26-20c-0.4-0.3-0.5-1-0.2-1.4c0.3-0.4,1-0.5,1.4-0.2L32,32.7l25.4-19.5c0.4-0.3,1.1-0.3,1.4,0.2c0.3,0.4,0.3,1.1-0.2,1.4l-26,20C32.4,34.9,32,35.2,31.4,34.8z M48,51h-2c-0.5,0-1-0.5-1-1s0.5-1,1-1h2c0.5,0,1,0.5,1,1S48.5,51,48,51z M59,48.9c0,1.2-0.9,2.1-2.1,2.1H52c-0.5,0-1-0.5-1-1s0.5-1,1-1h5v-5c0-0.5,0.5-1,1-1s1,0.5,1,1V48.9z"/></svg>